 <svg  version="1.0" xmlns="http://www.w3.org/2000/svg"  width="512.000000pt" height="512.000000pt" viewBox="0 0 512.000000 512.000000"  preserveAspectRatio="xMidYMid meet">  <g transform="translate(0.000000,512.000000) scale(0.100000,-0.100000)" fill="#ffffff" stroke="none"> <path d="M1842 4785 c-29 -8 -72 -28 -95 -44 -23 -16 -414 -402 -868 -858 -924 -927 -873 -867 -874 -1013 0 -141 -48 -86 894 -1028 501 -501 856 -849 878 -860 97 -49 194 -51 288 -8 120 55 181 159 173 296 -8 134 1 122 -537 663 -474 476 -555 550 -648 587 -18 7 -33 16 -33 21 0 5 716 10 1623 11 l1622 3 51 27 c67 35 138 115 164 186 27 69 23 154 -8 225 -29 65 -103 140 -165 168 l-52 24 -1620 5 -1620 5 75 39 c69 36 118 82 587 550 581 579 558 549 558 701 0 76 -4 98 -25 138 -68 134 -224 202 -368 162z"/> </g> </svg> 