<?xml version="1.0" standalone="no"?>
<!DOCTYPE svg PUBLIC "-//W3C//DTD SVG 20010904//EN"
 "http://www.w3.org/TR/2001/REC-SVG-20010904/DTD/svg10.dtd">
<svg version="1.0" xmlns="http://www.w3.org/2000/svg"
 width="900.000000pt" height="900.000000pt" viewBox="0 0 900.000000 900.000000"
 preserveAspectRatio="xMidYMid meet">
<metadata>
Created by potrace 1.10, written by Peter Selinger 2001-2011
</metadata>
<g transform="translate(0.000000,900.000000) scale(0.100000,-0.100000)"
fill="#000000" stroke="none">
<path d="M795 8929 c-108 -7 -216 -40 -309 -92 -27 -15 -51 -27 -53 -27 -2 0
-30 -20 -62 -44 -358 -276 -442 -776 -194 -1153 24 -37 592 -613 1561 -1582
1091 -1091 1522 -1529 1520 -1542 -2 -11 -694 -711 -1539 -1557 -1645 -1646
-1604 -1602 -1667 -1767 -45 -119 -52 -162 -52 -315 0 -197 30 -305 128 -460
37 -58 158 -190 175 -190 6 0 18 -6 26 -14 46 -40 144 -83 266 -116 101 -28
371 -28 482 -1 113 29 232 79 274 117 8 8 20 14 26 14 6 0 704 693 1551 1540
847 847 1545 1540 1550 1540 6 0 693 -683 1529 -1518 1160 -1160 1535 -1529
1590 -1565 171 -113 297 -147 541 -148 120 0 181 4 213 14 24 8 57 18 74 22
76 17 235 110 311 182 102 97 211 292 229 411 4 26 12 42 21 42 21 0 21 295 0
303 -8 3 -18 23 -21 44 -15 89 -69 209 -140 308 -43 59 -274 291 -2160 2165
-517 514 -946 942 -953 952 -12 17 127 159 1493 1524 828 829 1520 1525 1538
1548 47 60 71 105 110 201 62 153 71 372 22 545 -49 176 -211 392 -357 476
-126 72 -190 97 -313 119 -220 40 -440 -7 -634 -137 -25 -17 -726 -710 -1556
-1539 -831 -830 -1518 -1509 -1527 -1509 -9 0 -439 420 -955 933 -516 512
-1200 1193 -1521 1512 -564 560 -648 638 -752 686 -151 71 -276 92 -465 78z"/>
</g>
</svg>
